Coordinates
version=1
nRows=64
nColumns=11
inDegrees=yes

Units are S.I. units (second, meters, Newtons, ...)
If the header above contains a line with 'inDegrees', this indicates whether rotational values are in degrees (yes) or radians (no).

endheader
time	pelvis_tilt	pelvis_tx	pelvis_ty	hip_flexion_l	hip_flexion_r	knee_angle_l	knee_angle_r	ankle_angle_l	ankle_angle_r	lumbar_extension
      1.27000000	      4.12540139	     -1.41116224	      0.88297873	     -5.04096582	     23.50533786	    -37.13695509	    -16.04102508	     22.67568044	     -6.58358292	    -11.25571916
      1.28000000	      4.08041682	     -1.39800013	      0.88129547	     -5.57679613	     23.44080508	    -37.64942525	    -15.90071023	     21.93731185	     -6.76865872	    -10.91841511
      1.29000000	      3.90708975	     -1.38449019	      0.87957104	     -5.91989255	     23.52566900	    -38.29083627	    -16.13253232	     21.12955832	     -6.99080113	    -10.34862756
      1.30000000	      3.84418043	     -1.37051669	      0.87796596	     -6.36769007	     23.36347000	    -38.92383982	    -16.60147328	     20.00965247	     -6.92310695	     -9.86841856
      1.31000000	      3.73437623	     -1.35610183	      0.87667071	     -6.74866889	     23.01924075	    -39.51449622	    -17.04705357	     18.48352681	     -7.39588779	     -9.29877145
      1.32000000	      3.14868576	     -1.34228223	      0.87540168	     -6.45061390	     23.46680821	    -40.39985935	    -18.38884771	     16.95183008	     -8.89527526	     -8.27951812
      1.33000000	      2.59418855	     -1.32837046	      0.87429510	     -6.10644073	     24.58042329	    -41.29857354	    -21.41681714	     15.01836846	     -7.03019709	     -7.28689561
      1.34000000	      2.00076271	     -1.31414902	      0.87324624	     -5.61309914	     25.95836489	    -42.29473241	    -24.57961222	     12.88525321	     -5.57493940	     -6.19530818
      1.35000000	      1.54357861	     -1.30010574	      0.87281740	     -5.06753992	     26.71726592	    -43.48899444	    -26.69325081	     10.30969376	     -5.11154568	     -5.32832441
      1.36000000	      1.15827920	     -1.28586340	      0.87260304	     -4.43930138	     27.04934352	    -44.85008806	    -28.32261149	      7.21059317	     -3.99253450	     -4.55103240
      1.37000000	      0.98746270	     -1.27181913	      0.87286896	     -3.87096176	     26.87501065	    -46.25270011	    -29.47642727	      3.65680185	     -2.74589154	     -4.02642064
      1.38000000	      0.86763253	     -1.25812901	      0.87325520	     -3.18010599	     26.53442223	    -47.74804978	    -30.42620683	     -0.43996888	     -1.48027910	     -3.63801079
      1.39000000	      0.58959120	     -1.24473142	      0.87343171	     -2.13806351	     26.32903051	    -49.43979877	    -31.30155079	     -3.99688638	     -0.18971436	     -3.12221257
      1.40000000	      0.30107412	     -1.23169537	      0.87367594	     -0.93133875	     26.04990265	    -51.21309880	    -32.01854551	     -7.68536374	      1.10775447	     -2.65072634
      1.41000000	     -0.01271000	     -1.21887656	      0.87401930	      0.47761023	     25.74677717	    -53.11119636	    -32.58424162	    -11.11566896	      2.26205634	     -2.19609753
      1.42000000	     -0.34744856	     -1.20652764	      0.87437398	      2.07181778	     25.47241131	    -55.10245080	    -33.12943341	    -14.61932827	      3.27773422	     -1.78799480
      1.43000000	     -0.70738935	     -1.19445884	      0.87478617	      3.83182586	     25.12118015	    -57.22722222	    -33.45946696	    -17.05456161	      4.31972585	     -1.36100893
      1.44000000	     -1.02642027	     -1.18294411	      0.87544470	      5.65207318	     24.64831595	    -59.28040539	    -33.55674896	    -17.94694446	      5.17271035	     -1.04529215
      1.45000000	     -1.22177388	     -1.17095176	      0.87664461	      7.26516855	     23.88905165	    -61.05047810	    -33.43337635	    -17.02991913	      5.91650034	     -0.79938368
      1.46000000	     -1.51545734	     -1.16028330	      0.87800692	      9.17469368	     23.24025513	    -62.71738083	    -33.11155871	    -14.93272474	      6.39806306	     -0.59556173
      1.47000000	     -1.79426810	     -1.14930292	      0.87962391	     11.03107897	     22.45535533	    -64.02600571	    -32.61018169	    -12.73754668	      6.73711807	     -0.35732747
      1.48000000	     -1.88922845	     -1.13820510	      0.88175266	     12.64090671	     21.37484865	    -64.96883980	    -31.92100442	    -10.89466009	      7.07353444	     -0.30271367
      1.49000000	     -2.04376937	     -1.12729621	      0.88373911	     14.38395446	     20.37256383	    -65.59456367	    -31.22095703	     -9.87198387	      7.24968694	     -0.16695650
      1.50000000	     -2.19203192	     -1.11669572	      0.88575530	     16.11141145	     19.36434500	    -66.16656535	    -30.44218316	     -8.25392106	      7.28182992	     -0.06078426
      1.51000000	     -2.23367895	     -1.10607947	      0.88785016	     17.73582361	     18.29579206	    -66.44245880	    -29.82876530	     -7.25762103	      7.44547465	     -0.09512459
      1.52000000	     -2.28171016	     -1.09576822	      0.88979055	     19.39761004	     17.31451584	    -66.55450502	    -29.27099060	     -6.30354649	      7.35256592	     -0.15681328
      1.53000000	     -2.26211866	     -1.08543647	      0.89187378	     20.91539778	     16.23120473	    -66.57782114	    -28.63786744	     -5.41313243	      7.29762939	     -0.29897783
      1.54000000	     -2.03461433	     -1.07498288	      0.89413663	     22.16791508	     14.93637453	    -66.30542014	    -28.00292048	     -4.71012188	      7.15942335	     -0.64180436
      1.55000000	     -1.94678089	     -1.06480412	      0.89603288	     23.58055463	     13.87410850	    -65.90091273	    -27.51677890	     -3.77522953	      7.01187492	     -0.83037219
      1.56000000	     -2.00302131	     -1.05529143	      0.89744459	     25.20621821	     13.13131524	    -65.33779842	    -27.24547941	     -3.39947756	      6.81468981	     -0.97264816
      1.57000000	     -1.79777387	     -1.04457900	      0.89930007	     26.30571225	     11.95187332	    -64.56281350	    -26.79888842	     -2.70291222	      6.68425273	     -1.25314080
      1.58000000	     -1.52651143	     -1.03449611	      0.90113304	     27.35330885	     10.76961695	    -63.62327347	    -26.32145210	     -1.74514305	      6.22048969	     -1.70992664
      1.59000000	     -1.74048204	     -1.02533250	      0.90173519	     29.03471682	     10.44193881	    -62.66902235	    -26.47825089	     -1.33327692	      6.13937664	     -1.67194517
      1.60000000	     -1.64571408	     -1.01607254	      0.90272292	     30.26970038	      9.74662599	    -61.47395798	    -26.53052725	     -1.07134351	      5.98854999	     -1.97677253
      1.61000000	     -1.46978654	     -1.00616605	      0.90371861	     31.24868496	      8.87855431	    -60.10450292	    -26.50342928	     -0.36530969	      5.82861740	     -2.31461134
      1.62000000	     -1.33381605	     -0.99628751	      0.90442756	     32.21334481	      8.09730769	    -58.57525255	    -26.57709074	      0.17101828	      5.70805566	     -2.59916563
      1.63000000	     -1.31744717	     -0.98671822	      0.90466972	     33.25753935	      7.51585917	    -56.94692444	    -26.70519063	      0.47263986	      5.57699747	     -2.76932845
      1.64000000	     -1.28119529	     -0.97706187	      0.90477072	     34.19269639	      6.90689265	    -55.12429255	    -26.86849230	      0.53179025	      5.56901996	     -2.94006646
      1.65000000	     -1.10742121	     -0.96720999	      0.90487724	     34.87226778	      6.15934718	    -53.17798120	    -27.09552534	      0.66442278	      5.52192580	     -3.25386508
      1.66000000	     -0.94273699	     -0.95719258	      0.90487489	     35.43743878	      5.37630017	    -51.06212178	    -27.25295761	      0.69669867	      5.51812379	     -3.53442356
      1.67000000	     -0.85365322	     -0.94705939	      0.90445054	     35.99032345	      4.68446688	    -48.84704368	    -27.40196249	      0.54097203	      5.39853517	     -3.71974271
      1.68000000	     -0.83233324	     -0.93682916	      0.90375972	     36.51135043	      4.07716981	    -46.51625731	    -27.67312070	      0.24016750	      5.50953934	     -3.79740700
      1.69000000	     -0.70029733	     -0.92658168	      0.90319711	     36.76679833	      3.32620893	    -43.98433561	    -27.86731309	     -0.27109767	      5.57918147	     -4.01971005
      1.70000000	     -0.54885427	     -0.91611235	      0.90249614	     36.87742805	      2.53338676	    -41.34715765	    -28.03605012	     -0.89257612	      5.56721893	     -4.23256646
      1.71000000	     -0.46284348	     -0.90550990	      0.90156511	     36.96895880	      1.77512110	    -38.72072187	    -28.16961840	     -1.34655927	      5.58709837	     -4.35668807
      1.72000000	     -0.34751193	     -0.89479791	      0.90047677	     36.94161201	      1.04090688	    -36.03551974	    -28.43102832	     -1.91522236	      5.63631913	     -4.52528396
      1.73000000	     -0.24814817	     -0.88384998	      0.89932576	     36.82973605	      0.27308891	    -33.33945863	    -28.57122937	     -2.39456004	      5.55332173	     -4.63261180
      1.74000000	     -0.16406525	     -0.87291433	      0.89804081	     36.68340981	     -0.44851921	    -30.68878937	    -28.85095708	     -2.90068859	      5.54609912	     -4.71654924
      1.75000000	     -0.08446296	     -0.86186963	      0.89663441	     36.48080673	     -1.16520763	    -28.13003928	    -29.09371862	     -3.28735384	      5.51391814	     -4.80915374
      1.76000000	      0.01442096	     -0.85087990	      0.89518376	     36.25604488	     -1.89289180	    -25.76616549	    -29.34506096	     -3.70689059	      5.44168601	     -4.94826728
      1.77000000	      0.10917720	     -0.83970792	      0.89368782	     36.03110643	     -2.66457414	    -23.70301562	    -29.55761171	     -4.03557262	      5.45403722	     -5.07821798
      1.78000000	      0.25709969	     -0.82840903	      0.89225097	     35.75290118	     -3.44317518	    -21.99617381	    -29.77920702	     -4.18533237	      5.23190567	     -5.24224577
      1.79000000	      0.41678630	     -0.81698739	      0.89073192	     35.51246287	     -4.29102963	    -20.69201258	    -29.92998747	     -4.24263065	      4.95544360	     -5.43461534
      1.80000000	      0.57370259	     -0.80541921	      0.88922667	     35.32986155	     -5.16702772	    -19.87687201	    -30.01662333	     -4.13005938	      4.36841547	     -5.63194249
      1.81000000	      0.65372076	     -0.79367594	      0.88763527	     35.29207061	     -5.98406377	    -19.55464079	    -30.09454545	     -3.92149948	      4.02113988	     -5.73554404
      1.82000000	      0.68905786	     -0.78175014	      0.88595969	     35.35050701	     -6.88308684	    -19.70773387	    -29.90219877	     -3.77891154	      3.43693233	     -5.77998325
      1.83000000	      0.67049383	     -0.76952312	      0.88432079	     35.44522026	     -7.76122384	    -20.22226120	    -29.73950201	     -3.55317746	      3.05245589	     -5.74316747
      1.84000000	      0.58851724	     -0.75708337	      0.88262990	     35.60351131	     -8.66403619	    -21.09215630	    -29.44550656	     -3.45723339	      2.73286373	     -5.61601946
      1.85000000	      0.43662189	     -0.74440403	      0.88097414	     35.80614118	     -9.52491354	    -22.26775262	    -29.01380677	     -3.85702490	      2.11539566	     -5.38776973
      1.86000000	     -0.03786481	     -0.73207096	      0.87937754	     36.57448652	    -10.00167481	    -24.02657951	    -28.51341841	     -5.81265649	      1.22515397	     -4.86024270
      1.87000000	     -0.56029399	     -0.71962331	      0.87795854	     37.67466704	    -10.40233809	    -26.59376117	    -28.08128362	     -5.51662706	      0.51855337	     -4.26125330
      1.88000000	     -0.94742243	     -0.70682344	      0.87682145	     38.82692826	    -10.96014624	    -29.51385394	    -27.62978436	     -3.93904352	     -0.70067453	     -3.77215808
      1.89000000	     -1.24606074	     -0.69371754	      0.87587934	     39.70814494	    -11.60386344	    -31.90940157	    -27.17158308	     -3.16228255	     -1.95739938	     -3.34546269
      1.90000000	     -1.51527265	     -0.68053817	      0.87517858	     40.21507041	    -12.20952638	    -33.47093132	    -26.79818968	     -3.49697536	     -3.23804165	     -2.94090590
